<?xml version="1.0" encoding="UTF-8"?>
<svg version="1.1" xmlns="http://www.w3.org/2000/svg" width="243" height="85">
<path d="M0 0 C0.84304687 -0.020625 1.68609375 -0.04125 2.5546875 -0.0625 C9.57749633 -0.10611993 14.31301464 1.02218664 19.75 5.75 C22.28828458 8.73621715 22.80733534 10.55982047 23.1875 14.4375 C22.63279146 21.20494417 19.29741431 26.19581222 14.875 31.25 C15.74125 31.435625 16.6075 31.62125 17.5 31.8125 C21.86579289 33.67200438 24.22277648 36.37101511 26.875 40.25 C28.60065255 45.42695764 28.5608707 50.37288018 26.6875 55.5 C23.24756073 60.71921821 20.48659018 63.47740145 14.2800293 64.90625 C9.64159219 65.5692202 5.03320173 65.18065628 0.375 64.875 C-1.14480469 64.78992188 -1.14480469 64.78992188 -2.6953125 64.703125 C-5.17271836 64.56289448 -7.64891344 64.41162278 -10.125 64.25 C-10.1481271 56.05309439 -10.16591696 47.85620232 -10.17681217 39.65927219 C-10.1820402 35.85348423 -10.18913638 32.04771852 -10.20043945 28.24194336 C-10.2112712 24.57207456 -10.21727744 20.90222722 -10.21987724 17.23234367 C-10.22173097 15.82925008 -10.2253506 14.42615771 -10.23073006 13.0230732 C-10.23794419 11.0643032 -10.23840809 9.1055118 -10.23852539 7.14672852 C-10.240746 6.02976089 -10.24296661 4.91279327 -10.24525452 3.76197815 C-9.98310104 -1.71410556 -4.35280642 0.02590956 0 0 Z M-5.125 5.25 C-5.125 12.84 -5.125 20.43 -5.125 28.25 C3.51696468 30.04880077 3.51696468 30.04880077 11.55078125 27.59375 C14.80438151 24.12007074 17.17616104 20.73015589 18.0625 16 C17.86289363 12.00787263 17.45081408 10.26991996 14.875 7.25 C8.96694546 3.02996104 1.61182424 4.50146397 -5.125 5.25 Z M-5.125 32.25 C-5.125 41.49 -5.125 50.73 -5.125 60.25 C8.12202212 61.21546386 8.12202212 61.21546386 19.875 56.25 C22.13776839 53.85009413 22.82920542 52.39278303 22.9609375 49.10546875 C22.72766219 45.40375789 22.12900135 42.72625253 20.375 39.4375 C12.80546433 32.81415629 4.63604673 32.62906978 -5.125 32.25 Z " fill="#1E2C4D" transform="translate(25.125,8.75)"/>
<path d="M0 0 C-0.66 1.32 -1.32 2.64 -2 4 C-2.69996094 3.83886719 -3.39992187 3.67773438 -4.12109375 3.51171875 C-7.152661 2.97286487 -9.98485528 2.83195414 -13.0625 2.8125 C-14.59583984 2.79123047 -14.59583984 2.79123047 -16.16015625 2.76953125 C-19.01065415 3.00086464 -20.62792213 3.43870163 -23 5 C-24.41000664 7.82001327 -24.24548451 9.87007255 -24 13 C-21.74932037 18.02457998 -18.09356356 20.37767785 -13.6875 23.375 C-1.32024804 31.79109233 -1.32024804 31.79109233 0.71826172 38.28979492 C1.63672375 43.13956115 0.91545694 47.03023931 -1.59765625 51.26953125 C-5.07971241 55.56633036 -8.91598039 56.76435114 -14.31640625 57.375 C-21.7680867 57.63223169 -27.55188934 56.82110262 -34 53 C-33.34 51.68 -32.68 50.36 -32 49 C-29.66894284 49.53793627 -27.63885432 50.15855176 -25.4375 51.125 C-19.96717641 52.517446 -14.06625104 52.14452079 -8.75 50.16015625 C-6.63594115 48.99290912 -6.63594115 48.99290912 -5.625 45.6875 C-4.95046562 41.70774717 -4.94367153 40.39741225 -7 37 C-11.04847589 32.66131078 -15.50676826 29.2350495 -20.27148438 25.75 C-24.70777801 22.42926559 -28.2216824 19.3349528 -30 14 C-30.38104982 9.35119216 -30.43672542 6.92585789 -28.4375 2.6875 C-20.48396563 -6.08178148 -9.90210611 -3.4729725 0 0 Z " fill="#1E2B4A" transform="translate(233,17)"/>
<path d="M0 0 C1.16337891 0.00966797 2.32675781 0.01933594 3.52539062 0.02929688 C4.74033203 0.05443359 5.95527344 0.07957031 7.20703125 0.10546875 C8.43357422 0.11900391 9.66011719 0.13253906 10.92382812 0.14648438 C13.95616789 0.18188134 16.98763121 0.23126115 20.01953125 0.29296875 C19.68953125 2.27296875 19.35953125 4.25296875 19.01953125 6.29296875 C15.93675269 6.49045645 12.85330275 6.67420207 9.76953125 6.85546875 C8.89683594 6.91154297 8.02414063 6.96761719 7.125 7.02539062 C6.28066406 7.07373047 5.43632812 7.12207031 4.56640625 7.171875 C3.79135742 7.21900635 3.01630859 7.2661377 2.21777344 7.31469727 C0.01953125 7.29296875 0.01953125 7.29296875 -3.98046875 6.29296875 C-3.32046875 9.26296875 -2.66046875 12.23296875 -1.98046875 15.29296875 C-2.31046875 15.29296875 -2.64046875 15.29296875 -2.98046875 15.29296875 C-3.31046875 18.92296875 -3.64046875 22.55296875 -3.98046875 26.29296875 C2.94953125 26.29296875 9.87953125 26.29296875 17.01953125 26.29296875 C17.01953125 27.61296875 17.01953125 28.93296875 17.01953125 30.29296875 C10.08953125 30.29296875 3.15953125 30.29296875 -3.98046875 30.29296875 C-3.98046875 38.54296875 -3.98046875 46.79296875 -3.98046875 55.29296875 C3.93953125 55.29296875 11.85953125 55.29296875 20.01953125 55.29296875 C20.01953125 56.61296875 20.01953125 57.93296875 20.01953125 59.29296875 C10.77953125 59.29296875 1.53953125 59.29296875 -7.98046875 59.29296875 C-8.12344402 52.28207441 -8.26605088 45.27117459 -8.40771484 38.26025391 C-8.45599998 35.87613491 -8.50450061 33.49202027 -8.55322266 31.10791016 C-8.62329102 27.67742014 -8.69257968 24.24691511 -8.76171875 20.81640625 C-8.78359253 19.753685 -8.80546631 18.69096375 -8.82800293 17.59603882 C-8.86693573 15.65028004 -8.90131304 13.7044217 -8.92993164 11.75848389 C-8.97094217 9.75773448 -9.06786753 7.75818677 -9.18164062 5.76025391 C-8.98046875 3.29296875 -8.98046875 3.29296875 -7.85424805 1.4362793 C-5.17316874 -0.19961574 -3.12550624 -0.04573912 0 0 Z " fill="#202D4B" transform="translate(170.98046875,13.70703125)"/>
<path d="M0 0 C2.87597656 -0.14038086 2.87597656 -0.14038086 6 0 C7.984375 2.24609375 7.984375 2.24609375 9.75 5.4375 C10.07291016 6.00428467 10.39582031 6.57106934 10.72851562 7.1550293 C11.44012787 8.40487368 12.14281352 9.65983023 12.83789062 10.91894531 C14.54550365 13.9768641 16.33919928 16.98225444 18.12597656 19.99438477 C20.09802047 23.32142046 22.04851113 26.66087457 24 30 C26.84308502 26.5884534 29.20601339 23.1452503 31.41796875 19.296875 C32.03220703 18.2346875 32.64644531 17.1725 33.27929688 16.078125 C34.22385742 14.43070313 34.22385742 14.43070313 35.1875 12.75 C36.45051706 10.55653922 37.71477136 8.36379023 38.98046875 6.171875 C39.53629639 5.2034668 40.09212402 4.23505859 40.66479492 3.23730469 C42 1 42 1 43 0 C44.66617115 -0.04063832 46.33388095 -0.042721 48 0 C46.37269093 6.23626831 42.98388445 11.40907507 39.6875 16.875 C38.83381836 18.30779297 38.83381836 18.30779297 37.96289062 19.76953125 C37.40150391 20.70925781 36.84011719 21.64898437 36.26171875 22.6171875 C35.71201416 23.54176758 35.16230957 24.46634766 34.59594727 25.41894531 C33 28 33 28 31.49584961 30.07324219 C27.47394638 35.68935495 27.22762357 40.7057426 27.1875 47.5 C27.16236328 48.51320312 27.13722656 49.52640625 27.11132812 50.5703125 C27.0529094 53.04726637 27.01629953 55.5224717 27 58 C25.35 58 23.7 58 22 58 C22.10183594 56.78570312 22.20367187 55.57140625 22.30859375 54.3203125 C22.95951193 38.07789497 16.50858968 27.3690051 7.88525391 14.00683594 C5.03321626 9.4580538 2.50035965 4.74897761 0 0 Z " fill="#1E2A48" transform="translate(58,15)"/>
<path d="M0 0 C14.19 0 28.38 0 43 0 C43 1.65 43 3.3 43 5 C36.73 5 30.46 5 24 5 C24 22.49 24 39.98 24 58 C22.35 58 20.7 58 19 58 C19 40.51 19 23.02 19 5 C12.73 5 6.46 5 0 5 C0 3.35 0 1.7 0 0 Z " fill="#172545" transform="translate(108,15)"/>
<path d="M0 0 C0.33 0 0.66 0 1 0 C1.02505615 0.98581055 1.0501123 1.97162109 1.07592773 2.98730469 C1.52898484 20.67035924 2.00292429 38.33751605 3 56 C3 47.42 3 38.84 3 30 C3.99 30.33 4.98 30.66 6 31 C5.67 40.24 5.34 49.48 5 59 C18.22381314 59.06954314 18.22381314 59.06954314 30 54 C31.93493431 51.02269785 32.1942566 49.10513571 31.6875 45.625 C31.57921875 44.84253906 31.4709375 44.06007812 31.359375 43.25390625 C30.92029839 40.5001323 30.46930524 37.74878783 30 35 C30 34.34 30 33.68 30 33 C28.35 32.34 26.7 31.68 25 31 C25.66 30.67 26.32 30.34 27 30 C32.172798 33.17421695 36.03756286 36.11268859 38 42 C38.72502578 49.3199718 37.44968838 53.92039175 32.8125 59.75 C23.6669254 67.06645968 10.51994069 63.47817912 0 63 C0 42.21 0 21.42 0 0 Z " fill="#1E2B48" transform="translate(15,10)"/>
<path d="M0 0 C0.33 0 0.66 0 1 0 C1.02505615 0.98581055 1.0501123 1.97162109 1.07592773 2.98730469 C1.52898484 20.67035924 2.00292429 38.33751605 3 56 C3 47.42 3 38.84 3 30 C3.99 30.33 4.98 30.66 6 31 C5.67 40.24 5.34 49.48 5 59 C10.61 59 16.22 59 22 59 C17.75197923 61.12401038 14.83238937 61.2376107 10.25 61.125 C9.55261719 61.11597656 8.85523438 61.10695312 8.13671875 61.09765625 C6.42433042 61.07419888 4.71211996 61.03833104 3 61 C3 61.66 3 62.32 3 63 C2.01 63 1.02 63 0 63 C0 42.21 0 21.42 0 0 Z " fill="#141F3A" transform="translate(15,10)"/>
<path d="M0 0 C13.53 0 27.06 0 41 0 C40.67 0.99 40.34 1.98 40 3 C34.62484067 3.02467759 29.24971415 3.04284928 23.87451172 3.05493164 C22.04507879 3.05996737 20.21564991 3.06679627 18.38623047 3.07543945 C15.76008102 3.08753824 13.13398468 3.09323583 10.5078125 3.09765625 C9.68693146 3.10281754 8.86605042 3.10797882 8.02029419 3.11329651 C2.22774341 3.11387171 2.22774341 3.11387171 0 2 C0 1.34 0 0.68 0 0 Z " fill="#203055" transform="translate(108,16)"/>
<path d="M0 0 C14.19 0 28.38 0 43 0 C43 1.65 43 3.3 43 5 C36.73 5 30.46 5 24 5 C24 4.67 24 4.34 24 4 C25.14339844 3.95101563 26.28679687 3.90203125 27.46484375 3.8515625 C28.95575473 3.77654811 30.44663892 3.70099972 31.9375 3.625 C32.69224609 3.5940625 33.44699219 3.563125 34.22460938 3.53125 C36.15507395 3.4273685 38.07942081 3.22104386 40 3 C40.33 2.34 40.66 1.68 41 1 C39.98421875 1.0721875 38.9684375 1.144375 37.921875 1.21875 C25.16172436 2.09382073 12.76010773 2.15252586 0 1 C0 0.67 0 0.34 0 0 Z " fill="#1E2841" transform="translate(108,15)"/>
<path d="M0 0 C7.59 0.33 15.18 0.66 23 1 C23 1.99 23 2.98 23 4 C15.41 4 7.82 4 0 4 C0 2.68 0 1.36 0 0 Z " fill="#212F53" transform="translate(164,39)"/>
<path d="M0 0 C1.22589844 0.01353516 1.22589844 0.01353516 2.4765625 0.02734375 C3.41628906 0.04474609 3.41628906 0.04474609 4.375 0.0625 C4.375 0.7225 4.375 1.3825 4.375 2.0625 C1.29882812 2.35546875 1.29882812 2.35546875 -1.77734375 2.6484375 C-2.38707031 2.78507812 -2.99679688 2.92171875 -3.625 3.0625 C-3.955 3.7225 -4.285 4.3825 -4.625 5.0625 C-3.78195313 4.96710937 -2.93890625 4.87171875 -2.0703125 4.7734375 C-0.97460938 4.66257812 0.12109375 4.55171875 1.25 4.4375 C2.88582031 4.26347656 2.88582031 4.26347656 4.5546875 4.0859375 C5.48539063 4.07820313 6.41609375 4.07046875 7.375 4.0625 C8.035 4.7225 8.695 5.3825 9.375 6.0625 C7.33420995 6.2593121 5.29229993 6.44452831 3.25 6.625 C1.54457031 6.78162109 1.54457031 6.78162109 -0.1953125 6.94140625 C-3.51397993 7.05858016 -6.3812686 6.7280072 -9.625 6.0625 C-8.965 9.0325 -8.305 12.0025 -7.625 15.0625 C-8.615 15.0625 -9.605 15.0625 -10.625 15.0625 C-11.85576923 8.6625 -11.85576923 8.6625 -10.6875 5.625 C-10.336875 5.109375 -9.98625 4.59375 -9.625 4.0625 C-8.635 4.0625 -7.645 4.0625 -6.625 4.0625 C-6.625 3.0725 -6.625 2.0825 -6.625 1.0625 C-4.21954362 -0.14022819 -2.67503047 -0.03821472 0 0 Z " fill="#152039" transform="translate(176.625,13.9375)"/>
<path d="M0 0 C7.92 0 15.84 0 24 0 C24 1.32 24 2.64 24 4 C19.05 4 14.1 4 9 4 C9 3.67 9 3.34 9 3 C14.94 2.505 14.94 2.505 21 2 C14.07 1.67 7.14 1.34 0 1 C0 0.67 0 0.34 0 0 Z " fill="#1E2940" transform="translate(167,69)"/>
<path d="M0 0 C5.61 0 11.22 0 17 0 C17 0.33 17 0.66 17 1 C15.35 1.33 13.7 1.66 12 2 C11.67 2.99 11.34 3.98 11 5 C8.03 5 5.06 5 2 5 C4 4 6 3 8 2 C5.69 2 3.38 2 1 2 C0.67 1.34 0.34 0.68 0 0 Z " fill="#192541" transform="translate(18,9)"/>
<path d="M0 0 C3.41021743 0.78697325 6.68885166 1.87119943 10 3 C8.02 3.99 8.02 3.99 6 5 C6.33 5.66 6.66 6.32 7 7 C3.17902761 6.46930939 0.93828597 5.50298434 -2 3 C-1.34 2.01 -0.68 1.02 0 0 Z " fill="#17243E" transform="translate(201,66)"/>
<path d="M0 0 C3 2 3 2 4 5 C4.25343766 9.56187786 4.00169177 12.87151072 2 17 C1.67 16.01 1.34 15.02 1 14 C0.01 14 -0.98 14 -2 14 C-1.67 12.68 -1.34 11.36 -1 10 C-0.34 10 0.32 10 1 10 C2.27351308 7.45297384 1.80191925 6.5717055 1.0625 3.875 C0.86785156 3.15054687 0.67320313 2.42609375 0.47265625 1.6796875 C0.23869141 0.84824219 0.23869141 0.84824219 0 0 Z " fill="#1B2944" transform="translate(44,15)"/>
<path d="M0 0 C0.33 0 0.66 0 1 0 C1 5.94 1 11.88 1 18 C0.01 18 -0.98 18 -2 18 C-2.04241723 15.66705225 -2.04092937 13.33297433 -2 11 C-1.67 10.67 -1.34 10.34 -1 10 C-0.76712992 8.31816052 -0.58735834 6.6287584 -0.4375 4.9375 C-0.35371094 4.01839844 -0.26992187 3.09929688 -0.18359375 2.15234375 C-0.12300781 1.44207031 -0.06242187 0.73179688 0 0 Z " fill="#172549" transform="translate(83,54)"/>
<path d="M0 0 C0.33 0 0.66 0 1 0 C1.33 2.64 1.66 5.28 2 8 C2.66 6.35 3.32 4.7 4 3 C4.33 3 4.66 3 5 3 C5 6.3 5 9.6 5 13 C3.68 12.67 2.36 12.34 1 12 C0.03929566 9.11788698 -0.10581883 7.30149956 -0.0625 4.3125 C-0.05347656 3.50425781 -0.04445312 2.69601563 -0.03515625 1.86328125 C-0.02355469 1.24839844 -0.01195312 0.63351563 0 0 Z " fill="#16243F" transform="translate(162,27)"/>
<path d="M0 0 C3.63 0 7.26 0 11 0 C11.33 0.66 11.66 1.32 12 2 C9.78704384 3.10647808 8.45327301 3.19588368 6 3.25 C5.29875 3.27578125 4.5975 3.3015625 3.875 3.328125 C3.25625 3.21984375 2.6375 3.1115625 2 3 C1.34 2.01 0.68 1.02 0 0 Z " fill="#1D2D50" transform="translate(206,70)"/>
<path d="M0 0 C3 2 3 2 3.8125 5.5 C3.874375 6.655 3.93625 7.81 4 9 C3.34 9.66 2.68 10.32 2 11 C1.47007308 9.54494642 0.9513211 8.08581873 0.4375 6.625 C0.14746094 5.81289063 -0.14257812 5.00078125 -0.44140625 4.1640625 C-1 2 -1 2 0 0 Z " fill="#213255" transform="translate(48,47)"/>
<path d="M0 0 C1.32 1.32 2.64 2.64 4 4 C3.01 4 2.02 4 1 4 C1.66 5.32 2.32 6.64 3 8 C-0.36591866 6.55746343 -2.51047079 4.66735273 -5 2 C-2.525 2.495 -2.525 2.495 0 3 C0 2.01 0 1.02 0 0 Z " fill="#182644" transform="translate(213,36)"/>
<path d="M0 0 C6.625 0.75 6.625 0.75 10 3 C6.37 3 2.74 3 -1 3 C-0.67 2.01 -0.34 1.02 0 0 Z " fill="#1F3156" transform="translate(173,16)"/>
<path d="M0 0 C0.598125 0.226875 1.19625 0.45375 1.8125 0.6875 C0.8125 2.6875 0.8125 2.6875 -1.1875 3.5625 C-3.38755805 4.5109856 -3.38755805 4.5109856 -3.9375 6.8125 C-4.02 7.43125 -4.1025 8.05 -4.1875 8.6875 C-4.5175 8.6875 -4.8475 8.6875 -5.1875 8.6875 C-5.55003776 3.24943353 -5.55003776 3.24943353 -3.9375 0.75 C-2.1875 -0.3125 -2.1875 -0.3125 0 0 Z " fill="#1C273D" transform="translate(167.1875,14.3125)"/>
<path d="M0 0 C2.08133467 3.122002 2.2737822 3.93266989 2.25 7.5 C2.25515625 8.2734375 2.2603125 9.046875 2.265625 9.84375 C2 12 2 12 0 15 C-0.85035933 10.93717209 -0.95282243 8.02302804 0 4 C0 2.68 0 1.36 0 0 Z " fill="#1A243F" transform="translate(51,49)"/>
<path d="M0 0 C6.70459519 4.93654267 6.70459519 4.93654267 7.9375 9.375 C7.958125 10.24125 7.97875 11.1075 8 12 C6.66666667 10.33333333 5.33333333 8.66666667 4 7 C3.2575 6.113125 2.515 5.22625 1.75 4.3125 C0 2 0 2 0 0 Z " fill="#1B2744" transform="translate(225,45)"/>
<path d="M0 0 C0.99 0.33 1.98 0.66 3 1 C1.18705073 3.7194239 -0.66475218 5.74259377 -3 8 C-3 5.35220307 -2.82804069 3.48412207 -2 1 C-1.34 0.67 -0.68 0.34 0 0 Z " fill="#233153" transform="translate(43,28)"/>
<path d="M0 0 C1 2 1 2 1 6 C-0.98 6 -2.96 6 -5 6 C-5 5.34 -5 4.68 -5 4 C-3.37373596 2.61767557 -1.7074998 1.28062485 0 0 Z " fill="#22305A" transform="translate(38,35)"/>
<path d="M0 0 C2.86724686 0.57344937 3.8614515 0.8614515 6 3 C5.67 3.99 5.34 4.98 5 6 C4.01 5.67 3.02 5.34 2 5 C0.8125 2.4375 0.8125 2.4375 0 0 Z " fill="#213255" transform="translate(214,40)"/>
<path d="M0 0 C1 3 1 3 0 6 C-0.99 5.67 -1.98 5.34 -3 5 C-3.6875 2.9375 -3.6875 2.9375 -4 1 C-2.68 0.67 -1.36 0.34 0 0 Z " fill="#1A2341" transform="translate(190,14)"/>
</svg>
